<svg width="24" height="25" viewBox="0 0 24 25" fill="none" xmlns="http://www.w3.org/2000/svg">
  <path d="M7.68903 2.24219C5.47989 2.24219 3.68903 4.03305 3.68903 6.24219V18.2402C3.68903 20.4494 5.47989 22.2402 7.68903 22.2402H15.9836C18.2894 22.2402 19.8585 20.3872 19.9765 18.2213C19.9836 18.0893 19.8575 17.9934 19.7277 18.0182C18.6647 18.2212 17.524 17.889 16.7333 17.0374C16.3576 16.6328 16.1025 16.1529 15.9707 15.6487C15.9467 15.5571 15.8656 15.4905 15.7709 15.4905L13.5977 15.4906C11.8028 15.4907 10.3477 14.0357 10.3476 12.2407C10.3475 10.4458 11.8025 8.99067 13.5974 8.99059L15.7708 8.99049C15.8655 8.99048 15.9466 8.92385 15.9705 8.83221C16.1021 8.32862 16.3566 7.84858 16.7333 7.4429C17.524 6.59134 18.6647 6.25915 19.7277 6.46216C19.8575 6.48695 19.9836 6.391 19.9764 6.25904C19.8584 4.09385 18.2879 2.24219 15.9836 2.24219H7.68903Z" fill="black"/>
  <path d="M19.749 8.94761L23.6116 11.534L23.6232 11.5448C23.8168 11.7245 23.9268 11.9768 23.9268 12.2409C23.9268 12.5051 23.8168 12.7573 23.6232 12.9371L23.6116 12.9479L19.749 15.5343C19.364 15.8794 18.772 15.8536 18.4188 15.4732C18.2911 15.3357 18.2116 15.1699 18.1803 14.9975L18.177 14.9794L18.1832 13.1911L13.5976 13.1914C13.073 13.1914 12.6476 12.7661 12.6476 12.2414C12.6476 11.7167 13.0729 11.2914 13.5975 11.2914L18.1823 11.2911L18.1687 9.56962L18.1698 9.55878C18.1899 9.3602 18.2727 9.16602 18.4188 9.00867C18.772 8.62829 19.364 8.60243 19.749 8.94761Z" fill="black"/>
</svg>
